<svg width="271" height="84" viewBox="0 0 271 84" fill="none" xmlns="http://www.w3.org/2000/svg">
<g clip-path="url(#clip0_2766_583)">
<mask id="mask0_2766_583" style="mask-type:luminance" maskUnits="userSpaceOnUse" x="0" y="0" width="271" height="84">
<path d="M271 0H0V84H271V0Z" fill="white"/>
</mask>
<g mask="url(#mask0_2766_583)">
<path d="M249.04 17.3206H75.7436C68.1499 6.83002 55.8288 0 41.9078 0C18.8331 0 0.125 18.7495 0.125 41.8753C0.125 64.9986 18.8331 83.7506 41.9078 83.7506C55.9084 83.7506 68.2918 76.8408 75.873 66.2454H249.04C259.782 66.2454 270.876 55.2387 270.876 41.783C270.876 28.3275 259.782 17.3206 249.04 17.3206Z" fill="white" stroke="#D0D2D3" stroke-miterlimit="10"/>
<path d="M24.1421 47.8952C24.1421 47.8952 18.8798 38.1003 26.3989 28.3054C26.3989 28.3054 26.1624 26.515 24.6124 27.5997C24.6124 27.5997 17.566 33.0781 17.6905 46.1373L9.54688 51.0347C9.54688 51.0347 9.92258 57.3136 18.5687 67.1085L22.5771 64.5975C22.5771 64.5975 29.2179 72.7591 42.9995 71.0011C42.9995 71.0011 44.6292 70.3727 43.8754 68.9912C43.8754 68.9912 31.5965 70.8764 22.699 55.9322C22.7015 55.9322 20.9474 51.7878 24.1421 47.8952Z" fill="#FAA339"/>
<path d="M45.8715 26.4629C45.8715 26.4629 56.9635 26.9067 61.5491 38.3774C61.5491 38.3774 63.2061 39.0856 63.0643 37.1954C63.0643 37.1954 61.9472 28.3281 50.6636 21.7898L50.6014 12.2692C50.6014 12.2692 45.0181 9.39904 32.2043 11.8727L32.3213 16.6106C32.3213 16.6106 21.9309 18.184 16.4272 30.9713C16.4272 30.9713 16.1385 32.6969 17.7061 32.7518C17.7061 32.7518 22.3365 21.1989 39.6985 21.1291C39.7009 21.1291 44.1547 21.725 45.8715 26.4629Z" fill="#FAA339"/>
<path d="M54.1202 56.097C54.1202 56.097 48.395 65.6277 36.1535 64.1389C36.1535 64.1389 34.7378 65.2536 36.4571 66.0391C36.4571 66.0391 44.7524 69.3232 55.8991 62.558L64.2542 67.0839C64.2542 67.0839 69.4519 63.5604 73.4528 51.1123L69.2528 48.9354C69.2528 48.9354 72.8756 39.0481 64.3413 28.0613C64.3413 28.0613 62.9728 26.979 62.1692 28.3306C62.1692 28.3306 70.0441 37.9585 61.7512 53.2443C61.7536 53.2443 59.0914 56.8676 54.1202 56.097Z" fill="#FAA339"/>
<path d="M35.2001 53.1863C35.2001 56.251 32.7195 58.7346 29.6616 58.7346C26.6037 58.7346 24.123 56.251 24.123 53.1863C24.123 50.1216 26.6037 47.6355 29.6616 47.6355C32.722 47.638 35.2001 50.1216 35.2001 53.1863Z" fill="#FAA231"/>
<path d="M61.4496 48.6411C61.4496 51.7057 58.969 54.1919 55.9111 54.1919C52.8532 54.1919 50.375 51.7057 50.375 48.6411C50.375 45.5764 52.8557 43.0928 55.9111 43.0928C58.969 43.0928 61.4496 45.5764 61.4496 48.6411Z" fill="#FAA231"/>
<path d="M44.074 28.5442C44.074 31.6089 41.5958 34.0926 38.538 34.0926C35.4801 34.0926 33.002 31.6089 33.002 28.5442C33.002 25.4796 35.4801 22.9934 38.538 22.9934C41.5958 22.9934 44.074 25.4796 44.074 28.5442Z" fill="#FAA231"/>
<path fill-rule="evenodd" clip-rule="evenodd" d="M42.01 35.2329C42.01 35.2179 42.0076 35.2029 42.0076 35.188C41.3158 35.2628 40.6217 35.3127 39.935 35.4199C38.9596 35.572 38.0166 35.8787 37.1358 36.4124C36.6855 36.6867 36.2725 37.0258 35.954 37.5045C35.5534 38.1005 35.5037 38.7788 35.8321 39.4297C36.1431 40.0455 36.6258 40.4321 37.1507 40.7513C38.253 41.4195 39.4423 41.7088 40.664 41.851C41.6368 41.9632 42.6097 41.9507 43.5825 41.8211C44.5604 41.6888 45.5158 41.4495 46.424 40.9957C47.046 40.6865 47.6282 40.2999 48.0512 39.6541C48.3224 39.2402 48.4618 38.7763 48.3622 38.2502C48.2851 37.8412 48.0861 37.5096 47.8372 37.2203C47.3221 36.6243 46.6902 36.2653 46.0209 35.9835C44.7221 35.4349 43.3785 35.2428 42.01 35.2329ZM35.6107 43.3073C35.6107 43.9905 35.6231 44.6762 35.6081 45.3595C35.5932 45.9979 35.8122 46.5015 36.1879 46.928C36.7029 47.514 37.33 47.8706 37.9943 48.1523C39.0915 48.6161 40.2286 48.8256 41.388 48.8805C42.9381 48.9553 44.4633 48.7783 45.9413 48.1823C46.6305 47.903 47.2849 47.5364 47.8173 46.928C48.188 46.5066 48.4119 46.0078 48.397 45.3769C48.3846 44.8757 48.3946 44.3745 48.3946 43.8733C48.3946 43.6863 48.3946 43.4968 48.3946 43.3621C48.2825 43.589 48.1756 43.8633 48.0263 44.1002C47.7202 44.5815 47.2997 44.9032 46.8494 45.1725C45.7323 45.8408 44.5255 46.14 43.2889 46.2721C41.9578 46.4143 40.6316 46.3494 39.3179 46.0303C38.4172 45.8108 37.5464 45.4892 36.7626 44.9081C36.2402 44.5191 35.7998 44.0429 35.6107 43.3073ZM35.6107 39.8112C35.6107 40.3773 35.6081 40.9433 35.6107 41.5093C35.6107 41.7562 35.5982 42.0056 35.6256 42.25C35.6927 42.8758 36.0237 43.3172 36.4217 43.6912C37.0339 44.2648 37.7479 44.6039 38.4894 44.8582C39.7732 45.2971 41.087 45.4442 42.4181 45.3994C43.6348 45.3569 44.8266 45.1575 45.9785 44.6787C46.6603 44.3945 47.3097 44.0329 47.8347 43.4194C48.188 43.0055 48.407 42.5218 48.392 41.9108C48.3796 41.4221 48.3896 40.9333 48.3896 40.442C48.3896 40.2301 48.3896 40.0156 48.3896 39.8037C48.2751 40.265 48.0537 40.634 47.7625 40.9507C47.3669 41.3796 46.9041 41.6789 46.414 41.9233C45.5033 42.3771 44.5504 42.619 43.5726 42.7461C42.1146 42.9382 40.669 42.8784 39.2308 42.5218C38.36 42.3048 37.5215 41.9856 36.7626 41.422C36.2402 41.033 35.7973 40.5542 35.6107 39.8112ZM35.6131 46.7783C35.6131 47.5389 35.6107 48.2995 35.6131 49.06C35.6156 49.454 35.7499 49.7932 35.949 50.0998C36.265 50.5886 36.6855 50.9252 37.1433 51.2045C38.059 51.7631 39.0442 52.0523 40.0593 52.2219C41.0472 52.389 42.0424 52.4164 43.0377 52.3342C44.0105 52.2544 44.9609 52.0598 45.8865 51.6908C46.6006 51.404 47.2799 51.0349 47.8297 50.4041C48.1955 49.9852 48.417 49.4914 48.397 48.8655C48.3821 48.3818 48.3946 47.8979 48.3946 47.4142C48.3946 47.2023 48.3946 46.9878 48.3946 46.7759C48.2776 47.2571 48.0387 47.6337 47.7327 47.9578C47.3445 48.3668 46.8942 48.6586 46.4165 48.8954C45.4586 49.3717 44.4534 49.621 43.4258 49.7407C42.025 49.9029 40.6292 49.843 39.2483 49.4964C38.3724 49.277 37.529 48.9603 36.7651 48.3917C36.2402 48.0003 35.7947 47.5215 35.6131 46.7783Z" fill="url(#paint0_linear_2766_583)"/>
<path d="M222.325 73.8926L221.141 69.2171H221.777L222.333 71.5836C222.472 72.1646 222.596 72.7481 222.679 73.1994H222.691C222.768 72.7356 222.913 72.1795 223.071 71.5761L223.694 69.2171H224.323L224.89 71.5885C225.022 72.1446 225.147 72.6982 225.217 73.1895H225.229C225.326 72.6757 225.457 72.1546 225.602 71.5736L226.219 69.2146H226.833L225.513 73.8901H224.883L224.296 71.4564C224.152 70.8604 224.054 70.4016 223.992 69.9303H223.98C223.898 70.3941 223.794 70.8529 223.619 71.4564L222.955 73.8901H222.325V73.8926Z" fill="#156CB5"/>
<path d="M228.018 69.2163V71.1713H230.275V69.2163H230.884V73.8918H230.275V71.6999H228.018V73.8918H227.416V69.2163H228.018Z" fill="#156CB5"/>
<path d="M232.918 73.8943V71.9119L231.445 69.2212H232.129L232.786 70.5104C232.965 70.8646 233.105 71.1488 233.249 71.4755H233.263C233.395 71.1687 233.555 70.8646 233.734 70.5104L234.405 69.2212H235.09L233.525 71.9044V73.8943H232.918Z" fill="#156CB5"/>
<path d="M237.09 73.8918V69.2163H237.747L239.242 71.5828C239.588 72.1314 239.859 72.6226 240.081 73.1014L240.095 73.0939C240.041 72.4705 240.026 71.902 240.026 71.1738V69.2188H240.593V73.8944H239.984L238.503 71.5229C238.177 71.0017 237.866 70.4681 237.63 69.9619L237.61 69.9694C237.644 70.5579 237.66 71.1214 237.66 71.8969V73.8944H237.09V73.8918Z" fill="#156CB5"/>
<path d="M245.626 71.5065C245.626 73.1149 244.65 73.9677 243.459 73.9677C242.227 73.9677 241.361 73.0102 241.361 71.5963C241.361 70.1126 242.282 69.1426 243.528 69.1426C244.802 69.1426 245.626 70.1201 245.626 71.5065ZM242.008 71.5839C242.008 72.5838 242.548 73.4765 243.496 73.4765C244.451 73.4765 244.992 72.5962 244.992 71.534C244.992 70.6038 244.506 69.6338 243.503 69.6338C242.506 69.6338 242.008 70.5565 242.008 71.5839Z" fill="#156CB5"/>
<path d="M247.121 69.73H245.703V69.2163H249.156V69.73H247.731V73.8918H247.121V69.73Z" fill="#156CB5"/>
<path d="M86.6261 53.981V36.0694H81.4355L79.2012 32.6731H97.7253L95.2024 35.9971H90.7339V50.9488L86.6261 53.981Z" fill="#156CB5"/>
<path d="M100.031 51.0211V32.6731H117.181L114.445 36.0694H104.211V40.2586H114.805L112.571 43.3283H104.425V47.1211H116.823L114.3 51.0211H100.031Z" fill="#156CB5"/>
<path d="M140.318 53.981V32.6731H155.812L158.84 38.164L156.39 43.0042L158.84 46.0364V51.0211H154.876V46.3256L153.433 44.7372H144.426V51.0211L140.318 53.981Z" fill="#156CB5"/>
<path d="M161.146 36.6479L163.955 32.6731H176.857L179.813 36.6479V47.1211L176.785 50.8765H164.316L161.146 47.2657V36.6479Z" fill="#156CB5"/>
<path d="M199.273 35.9971L202.298 32.6731H185.29L182.119 38.2363L185.145 43.5078H197.111L197.979 45.3132L197.038 47.1211H185.073L182.622 50.8765H199.273L201.793 45.3132L199.273 39.9694L187.813 39.8971L186.516 38.0194L188.029 36.0694L199.273 35.9971Z" fill="#156CB5"/>
<path d="M225.072 53.981V32.6731H242.153L239.199 36.0694H229.18V40.0417H239.991L237.612 43.3283H229.252L229.18 50.8765L225.072 53.981Z" fill="#156CB5"/>
<path d="M126.985 53.981V36.0694H121.795L119.561 32.6731H138.084L135.561 35.9971H131.093V50.9488L126.985 53.981Z" fill="#156CB5"/>
<path d="M251.883 53.981V36.0694H246.693L244.459 32.6731H262.981L260.461 35.9971H255.991V50.9488L251.883 53.981Z" fill="#156CB5"/>
<path d="M175.706 36.6482H165.436V47.0141H175.706V36.6482Z" fill="white"/>
<path d="M204.1 36.67L206.911 32.6978H219.812L222.768 36.67V47.1432L219.74 50.9011H207.272L204.1 47.2879V36.67Z" fill="#156CB5"/>
<path d="M218.66 36.6697H208.389V47.0356H218.66V36.6697Z" fill="white"/>
<path d="M144.428 40.6199V36.0691H153.507L154.768 38.7422L153.544 40.6199H144.428Z" fill="white"/>
</g>
</g>
<defs>
<linearGradient id="paint0_linear_2766_583" x1="42.0016" y1="52.3766" x2="42.0016" y2="35.1874" gradientUnits="userSpaceOnUse">
<stop stop-color="#095E97"/>
<stop offset="0.1459" stop-color="#0D629B"/>
<stop offset="0.3854" stop-color="#176FA7"/>
<stop offset="0.6886" stop-color="#2386BD"/>
<stop offset="1" stop-color="#2DA6DE"/>
</linearGradient>
<clipPath id="clip0_2766_583">
<rect width="271" height="84" fill="white"/>
</clipPath>
</defs>
</svg>
